<svg width="21" height="21" viewBox="0 0 21 21" fill="none" xmlns="http://www.w3.org/2000/svg">
<path d="M18.0698 2.82666L18.6675 2.2124C18.9497 1.92188 18.958 1.51514 18.6758 1.24121L18.4849 1.04199C18.2275 0.784668 17.8125 0.817871 17.5469 1.0835L16.9409 1.68115L18.0698 2.82666ZM8.51562 11.4595L10.1343 10.7539L17.4556 3.43262L16.3184 2.31201L9.00537 9.6333L8.2583 11.1938C8.19189 11.335 8.35791 11.5259 8.51562 11.4595ZM5.0708 17.6353H14.8159C16.3018 17.6353 17.1733 16.772 17.1733 15.062V5.82324L15.8369 7.15967V14.9956C15.8369 15.8589 15.3638 16.2988 14.791 16.2988H5.0874C4.25732 16.2988 3.80078 15.8589 3.80078 14.9956V5.57422C3.80078 4.71094 4.25732 4.2627 5.0874 4.2627H12.2676L13.604 2.92627H5.0708C3.33594 2.92627 2.46436 3.78955 2.46436 5.49951V15.062C2.46436 16.7803 3.33594 17.6353 5.0708 17.6353Z" fill="#3478F6"/>
</svg>
